<svg width="16" height="13" viewBox="0 0 16 13" fill="none" xmlns="http://www.w3.org/2000/svg">
<path d="M7.358 9.664C7.358 7.9 6.266 6.766 4.376 6.766C3.998 6.766 3.704 6.85 3.494 6.976C3.578 5.044 5.342 3.742 6.938 3.49V0.927999C4.292 1.18 0.428 3.07 0.428 8.698C0.428 10.924 1.856 12.73 4.082 12.73C6.056 12.73 7.358 11.302 7.358 9.664ZM15.632 9.664C15.632 7.9 14.54 6.766 12.65 6.766C12.272 6.766 11.978 6.85 11.768 6.976C11.852 5.044 13.616 3.742 15.212 3.49V0.927999C12.566 1.18 8.702 3.07 8.702 8.698C8.702 10.924 10.13 12.73 12.356 12.73C14.33 12.73 15.632 11.302 15.632 9.664Z" fill="#157CFF"/>
</svg>
