<svg width="132" height="64" viewBox="0 0 132 64" fill="none" xmlns="http://www.w3.org/2000/svg">
<path d="M1.02273 24V0.727272H10.2045C11.9697 0.727272 13.4735 1.06439 14.7159 1.73864C15.9583 2.4053 16.9053 3.33333 17.5568 4.52273C18.2159 5.70454 18.5455 7.06818 18.5455 8.61364C18.5455 10.1591 18.2121 11.5227 17.5455 12.7045C16.8788 13.8864 15.9129 14.8068 14.6477 15.4659C13.3902 16.125 11.8674 16.4545 10.0795 16.4545H4.22727V12.5114H9.28409C10.2311 12.5114 11.0114 12.3485 11.625 12.0227C12.2462 11.6894 12.7083 11.2311 13.0114 10.6477C13.322 10.0568 13.4773 9.37879 13.4773 8.61364C13.4773 7.84091 13.322 7.16667 13.0114 6.59091C12.7083 6.00757 12.2462 5.55682 11.625 5.23864C11.0038 4.91288 10.2159 4.75 9.26136 4.75H5.94318V24H1.02273ZM29.3239 24.3409C27.5284 24.3409 25.983 23.9773 24.6875 23.25C23.3996 22.5152 22.4072 21.4773 21.7102 20.1364C21.0133 18.7879 20.6648 17.1932 20.6648 15.3523C20.6648 13.5568 21.0133 11.9811 21.7102 10.625C22.4072 9.26894 23.3883 8.21212 24.6534 7.45454C25.9261 6.69697 27.4186 6.31818 29.1307 6.31818C30.2822 6.31818 31.3542 6.50379 32.3466 6.875C33.3466 7.23864 34.2178 7.78788 34.9602 8.52273C35.7102 9.25758 36.2936 10.1818 36.7102 11.2955C37.1269 12.4015 37.3352 13.697 37.3352 15.1818V16.5114H22.5966V13.5114H32.7784C32.7784 12.8144 32.6269 12.197 32.3239 11.6591C32.0208 11.1212 31.6004 10.7008 31.0625 10.3977C30.5322 10.0871 29.9148 9.93182 29.2102 9.93182C28.4754 9.93182 27.8239 10.1023 27.2557 10.4432C26.6951 10.7765 26.2557 11.2273 25.9375 11.7955C25.6193 12.3561 25.4564 12.9811 25.4489 13.6705V16.5227C25.4489 17.3864 25.608 18.1326 25.9261 18.7614C26.2519 19.3902 26.7102 19.875 27.3011 20.2159C27.892 20.5568 28.5928 20.7273 29.4034 20.7273C29.9413 20.7273 30.4337 20.6515 30.8807 20.5C31.3277 20.3485 31.7102 20.1212 32.0284 19.8182C32.3466 19.5152 32.589 19.1439 32.7557 18.7045L37.233 19C37.0057 20.0758 36.5398 21.0152 35.8352 21.8182C35.1383 22.6136 34.2367 23.2348 33.1307 23.6818C32.0322 24.1212 30.7633 24.3409 29.3239 24.3409ZM49.7784 6.54545V10.1818H39.267V6.54545H49.7784ZM41.6534 2.36364H46.4943V18.6364C46.4943 19.0833 46.5625 19.4318 46.6989 19.6818C46.8352 19.9242 47.0246 20.0947 47.267 20.1932C47.517 20.2917 47.8049 20.3409 48.1307 20.3409C48.358 20.3409 48.5852 20.322 48.8125 20.2841C49.0398 20.2386 49.214 20.2045 49.3352 20.1818L50.0966 23.7841C49.8542 23.8598 49.5133 23.947 49.0739 24.0455C48.6345 24.1515 48.1004 24.2159 47.4716 24.2386C46.3049 24.2841 45.2822 24.1288 44.4034 23.7727C43.5322 23.4167 42.8542 22.8636 42.3693 22.1136C41.8845 21.3636 41.6458 20.4167 41.6534 19.2727V2.36364ZM73.5568 8.875H68.5795C68.4886 8.23106 68.303 7.65909 68.0227 7.15909C67.7424 6.65151 67.3826 6.2197 66.9432 5.86364C66.5038 5.50757 65.9962 5.23485 65.4205 5.04545C64.8523 4.85606 64.2348 4.76136 63.5682 4.76136C62.3636 4.76136 61.3144 5.06061 60.4205 5.65909C59.5265 6.25 58.8333 7.11364 58.3409 8.25C57.8485 9.37879 57.6023 10.75 57.6023 12.3636C57.6023 14.0227 57.8485 15.4167 58.3409 16.5455C58.8409 17.6742 59.5379 18.5265 60.4318 19.1023C61.3258 19.678 62.3598 19.9659 63.5341 19.9659C64.1932 19.9659 64.803 19.8788 65.3636 19.7045C65.9318 19.5303 66.4356 19.2765 66.875 18.9432C67.3144 18.6023 67.678 18.1894 67.9659 17.7045C68.2614 17.2197 68.4659 16.6667 68.5795 16.0455L73.5568 16.0682C73.428 17.1364 73.1061 18.1667 72.5909 19.1591C72.0833 20.1439 71.3977 21.0265 70.5341 21.8068C69.678 22.5795 68.6553 23.1932 67.4659 23.6477C66.2841 24.0947 64.947 24.3182 63.4545 24.3182C61.3788 24.3182 59.5227 23.8485 57.8864 22.9091C56.2576 21.9697 54.9697 20.6098 54.0227 18.8295C53.0833 17.0492 52.6136 14.8939 52.6136 12.3636C52.6136 9.82576 53.0909 7.66667 54.0455 5.88636C55 4.10606 56.2955 2.75 57.9318 1.81818C59.5682 0.878787 61.4091 0.40909 63.4545 0.40909C64.803 0.40909 66.053 0.598484 67.2045 0.977272C68.3636 1.35606 69.3902 1.90909 70.2841 2.63636C71.178 3.35606 71.9053 4.23864 72.4659 5.28409C73.0341 6.32954 73.3977 7.52651 73.5568 8.875ZM81.9716 24.3295C80.858 24.3295 79.8655 24.1364 78.9943 23.75C78.1231 23.3561 77.4337 22.7765 76.9261 22.0114C76.4261 21.2386 76.1761 20.2765 76.1761 19.125C76.1761 18.1553 76.3542 17.3409 76.7102 16.6818C77.0663 16.0227 77.5511 15.4924 78.1648 15.0909C78.7784 14.6894 79.4754 14.3864 80.2557 14.1818C81.0436 13.9773 81.8693 13.8333 82.733 13.75C83.7481 13.6439 84.5663 13.5455 85.1875 13.4545C85.8087 13.3561 86.2595 13.2121 86.5398 13.0227C86.8201 12.8333 86.9602 12.553 86.9602 12.1818V12.1136C86.9602 11.3939 86.733 10.8371 86.2784 10.4432C85.8314 10.0492 85.1951 9.85227 84.3693 9.85227C83.4981 9.85227 82.8049 10.0455 82.2898 10.4318C81.7746 10.8106 81.4337 11.2879 81.267 11.8636L76.7898 11.5C77.017 10.4394 77.464 9.52273 78.1307 8.75C78.7973 7.9697 79.6572 7.37121 80.7102 6.95454C81.7708 6.5303 82.9981 6.31818 84.392 6.31818C85.3617 6.31818 86.2898 6.43182 87.1761 6.65909C88.0701 6.88636 88.8617 7.23864 89.5511 7.71591C90.2481 8.19318 90.7973 8.80682 91.1989 9.55682C91.6004 10.2992 91.8011 11.1894 91.8011 12.2273V24H87.2102V21.5795H87.0739C86.7936 22.125 86.4186 22.6061 85.9489 23.0227C85.4792 23.4318 84.9148 23.7538 84.2557 23.9886C83.5966 24.2159 82.8352 24.3295 81.9716 24.3295ZM83.358 20.9886C84.0701 20.9886 84.6989 20.8485 85.2443 20.5682C85.7898 20.2803 86.2178 19.8939 86.5284 19.4091C86.839 18.9242 86.9943 18.375 86.9943 17.7614V15.9091C86.8428 16.0076 86.6345 16.0985 86.3693 16.1818C86.1117 16.2576 85.8201 16.3295 85.4943 16.3977C85.1686 16.4583 84.8428 16.5152 84.517 16.5682C84.1913 16.6136 83.8958 16.6553 83.6307 16.6932C83.0625 16.7765 82.5663 16.9091 82.142 17.0909C81.7178 17.2727 81.3883 17.5189 81.1534 17.8295C80.9186 18.1326 80.8011 18.5114 80.8011 18.9659C80.8011 19.625 81.0398 20.1288 81.517 20.4773C82.0019 20.8182 82.6155 20.9886 83.358 20.9886ZM95.5568 24V6.54545H100.25V9.59091H100.432C100.75 8.50758 101.284 7.68939 102.034 7.13636C102.784 6.57576 103.648 6.29545 104.625 6.29545C104.867 6.29545 105.129 6.31061 105.409 6.34091C105.689 6.37121 105.936 6.41288 106.148 6.46591V10.7614C105.92 10.6932 105.606 10.6326 105.205 10.5795C104.803 10.5265 104.436 10.5 104.102 10.5C103.39 10.5 102.754 10.6553 102.193 10.9659C101.64 11.2689 101.201 11.6932 100.875 12.2386C100.557 12.7841 100.398 13.4129 100.398 14.125V24H95.5568ZM115.793 24.3409C113.997 24.3409 112.452 23.9773 111.156 23.25C109.868 22.5152 108.876 21.4773 108.179 20.1364C107.482 18.7879 107.134 17.1932 107.134 15.3523C107.134 13.5568 107.482 11.9811 108.179 10.625C108.876 9.26894 109.857 8.21212 111.122 7.45454C112.395 6.69697 113.887 6.31818 115.599 6.31818C116.751 6.31818 117.823 6.50379 118.815 6.875C119.815 7.23864 120.687 7.78788 121.429 8.52273C122.179 9.25758 122.762 10.1818 123.179 11.2955C123.596 12.4015 123.804 13.697 123.804 15.1818V16.5114H109.065V13.5114H119.247C119.247 12.8144 119.096 12.197 118.793 11.6591C118.49 11.1212 118.069 10.7008 117.531 10.3977C117.001 10.0871 116.384 9.93182 115.679 9.93182C114.944 9.93182 114.293 10.1023 113.724 10.4432C113.164 10.7765 112.724 11.2273 112.406 11.7955C112.088 12.3561 111.925 12.9811 111.918 13.6705V16.5227C111.918 17.3864 112.077 18.1326 112.395 18.7614C112.721 19.3902 113.179 19.875 113.77 20.2159C114.361 20.5568 115.062 20.7273 115.872 20.7273C116.41 20.7273 116.902 20.6515 117.349 20.5C117.796 20.3485 118.179 20.1212 118.497 19.8182C118.815 19.5152 119.058 19.1439 119.224 18.7045L123.702 19C123.474 20.0758 123.009 21.0152 122.304 21.8182C121.607 22.6136 120.705 23.2348 119.599 23.6818C118.501 24.1212 117.232 24.3409 115.793 24.3409Z" fill="#157CFF"/>
<path d="M21.5568 47.875H16.5795C16.4886 47.2311 16.303 46.6591 16.0227 46.1591C15.7424 45.6515 15.3826 45.2197 14.9432 44.8636C14.5038 44.5076 13.9962 44.2348 13.4205 44.0455C12.8523 43.8561 12.2348 43.7614 11.5682 43.7614C10.3636 43.7614 9.31439 44.0606 8.42045 44.6591C7.52652 45.25 6.83333 46.1136 6.34091 47.25C5.84849 48.3788 5.60227 49.75 5.60227 51.3636C5.60227 53.0227 5.84849 54.4167 6.34091 55.5455C6.84091 56.6742 7.53788 57.5265 8.43182 58.1023C9.32576 58.678 10.3598 58.9659 11.5341 58.9659C12.1932 58.9659 12.803 58.8788 13.3636 58.7045C13.9318 58.5303 14.4356 58.2765 14.875 57.9432C15.3144 57.6023 15.678 57.1894 15.9659 56.7045C16.2614 56.2197 16.4659 55.6667 16.5795 55.0455L21.5568 55.0682C21.428 56.1364 21.1061 57.1667 20.5909 58.1591C20.0833 59.1439 19.3977 60.0265 18.5341 60.8068C17.678 61.5795 16.6553 62.1932 15.4659 62.6477C14.2841 63.0947 12.947 63.3182 11.4545 63.3182C9.37879 63.3182 7.52273 62.8485 5.88636 61.9091C4.25758 60.9697 2.9697 59.6098 2.02273 57.8295C1.08333 56.0492 0.613636 53.8939 0.613636 51.3636C0.613636 48.8258 1.09091 46.6667 2.04545 44.8864C3 43.1061 4.29545 41.75 5.93182 40.8182C7.56818 39.8788 9.40909 39.4091 11.4545 39.4091C12.803 39.4091 14.053 39.5985 15.2045 39.9773C16.3636 40.3561 17.3902 40.9091 18.2841 41.6364C19.178 42.3561 19.9053 43.2386 20.4659 44.2841C21.0341 45.3295 21.3977 46.5265 21.5568 47.875ZM32.8807 63.3409C31.1155 63.3409 29.589 62.9659 28.3011 62.2159C27.0208 61.4583 26.0322 60.4053 25.3352 59.0568C24.6383 57.7008 24.2898 56.1288 24.2898 54.3409C24.2898 52.5379 24.6383 50.9621 25.3352 49.6136C26.0322 48.2576 27.0208 47.2045 28.3011 46.4545C29.589 45.697 31.1155 45.3182 32.8807 45.3182C34.6458 45.3182 36.1686 45.697 37.4489 46.4545C38.7367 47.2045 39.7292 48.2576 40.4261 49.6136C41.1231 50.9621 41.4716 52.5379 41.4716 54.3409C41.4716 56.1288 41.1231 57.7008 40.4261 59.0568C39.7292 60.4053 38.7367 61.4583 37.4489 62.2159C36.1686 62.9659 34.6458 63.3409 32.8807 63.3409ZM32.9034 59.5909C33.7064 59.5909 34.3769 59.3636 34.9148 58.9091C35.4527 58.447 35.858 57.8182 36.1307 57.0227C36.411 56.2273 36.5511 55.322 36.5511 54.3068C36.5511 53.2917 36.411 52.3864 36.1307 51.5909C35.858 50.7955 35.4527 50.1667 34.9148 49.7045C34.3769 49.2424 33.7064 49.0114 32.9034 49.0114C32.0928 49.0114 31.411 49.2424 30.858 49.7045C30.3125 50.1667 29.8996 50.7955 29.6193 51.5909C29.3466 52.3864 29.2102 53.2917 29.2102 54.3068C29.2102 55.322 29.3466 56.2273 29.6193 57.0227C29.8996 57.8182 30.3125 58.447 30.858 58.9091C31.411 59.3636 32.0928 59.5909 32.9034 59.5909ZM49.4602 52.9091V63H44.6193V45.5455H49.233V48.625H49.4375C49.8239 47.6098 50.4716 46.8068 51.3807 46.2159C52.2898 45.6174 53.392 45.3182 54.6875 45.3182C55.8996 45.3182 56.9564 45.5833 57.858 46.1136C58.7595 46.6439 59.4602 47.4015 59.9602 48.3864C60.4602 49.3636 60.7102 50.5303 60.7102 51.8864V63H55.8693V52.75C55.8769 51.6818 55.6042 50.8485 55.0511 50.25C54.4981 49.6439 53.7367 49.3409 52.767 49.3409C52.1155 49.3409 51.5398 49.4811 51.0398 49.7614C50.5473 50.0417 50.161 50.4508 49.8807 50.9886C49.608 51.5189 49.4678 52.1591 49.4602 52.9091ZM69.3665 52.9091V63H64.5256V45.5455H69.1392V48.625H69.3438C69.7301 47.6098 70.3778 46.8068 71.2869 46.2159C72.196 45.6174 73.2983 45.3182 74.5938 45.3182C75.8059 45.3182 76.8627 45.5833 77.7642 46.1136C78.6657 46.6439 79.3665 47.4015 79.8665 48.3864C80.3665 49.3636 80.6165 50.5303 80.6165 51.8864V63H75.7756V52.75C75.7831 51.6818 75.5104 50.8485 74.9574 50.25C74.4044 49.6439 73.643 49.3409 72.6733 49.3409C72.0218 49.3409 71.446 49.4811 70.946 49.7614C70.4536 50.0417 70.0672 50.4508 69.7869 50.9886C69.5142 51.5189 69.3741 52.1591 69.3665 52.9091ZM92.3864 63.3409C90.5909 63.3409 89.0455 62.9773 87.75 62.25C86.4621 61.5152 85.4697 60.4773 84.7727 59.1364C84.0758 57.7879 83.7273 56.1932 83.7273 54.3523C83.7273 52.5568 84.0758 50.9811 84.7727 49.625C85.4697 48.2689 86.4508 47.2121 87.7159 46.4545C88.9886 45.697 90.4811 45.3182 92.1932 45.3182C93.3447 45.3182 94.4167 45.5038 95.4091 45.875C96.4091 46.2386 97.2803 46.7879 98.0227 47.5227C98.7727 48.2576 99.3561 49.1818 99.7727 50.2955C100.189 51.4015 100.398 52.697 100.398 54.1818V55.5114H85.6591V52.5114H95.8409C95.8409 51.8144 95.6894 51.197 95.3864 50.6591C95.0833 50.1212 94.6629 49.7008 94.125 49.3977C93.5947 49.0871 92.9773 48.9318 92.2727 48.9318C91.5379 48.9318 90.8864 49.1023 90.3182 49.4432C89.7576 49.7765 89.3182 50.2273 89 50.7955C88.6818 51.3561 88.5189 51.9811 88.5114 52.6705V55.5227C88.5114 56.3864 88.6705 57.1326 88.9886 57.7614C89.3144 58.3902 89.7727 58.875 90.3636 59.2159C90.9545 59.5568 91.6553 59.7273 92.4659 59.7273C93.0038 59.7273 93.4962 59.6515 93.9432 59.5C94.3902 59.3485 94.7727 59.1212 95.0909 58.8182C95.4091 58.5152 95.6515 58.1439 95.8182 57.7045L100.295 58C100.068 59.0758 99.6023 60.0152 98.8977 60.8182C98.2008 61.6136 97.2992 62.2348 96.1932 62.6818C95.0947 63.1212 93.8258 63.3409 92.3864 63.3409ZM111.443 63.3409C109.655 63.3409 108.117 62.9621 106.83 62.2045C105.549 61.4394 104.564 60.3788 103.875 59.0227C103.193 57.6667 102.852 56.1061 102.852 54.3409C102.852 52.553 103.197 50.9848 103.886 49.6364C104.583 48.2803 105.572 47.2235 106.852 46.4659C108.133 45.7008 109.655 45.3182 111.42 45.3182C112.943 45.3182 114.277 45.5947 115.42 46.1477C116.564 46.7008 117.47 47.4773 118.136 48.4773C118.803 49.4773 119.17 50.6515 119.239 52H114.67C114.542 51.1288 114.201 50.428 113.648 49.8977C113.102 49.3598 112.386 49.0909 111.5 49.0909C110.75 49.0909 110.095 49.2955 109.534 49.7045C108.981 50.1061 108.549 50.6932 108.239 51.4659C107.928 52.2386 107.773 53.1742 107.773 54.2727C107.773 55.3864 107.924 56.3333 108.227 57.1136C108.538 57.8939 108.973 58.4886 109.534 58.8977C110.095 59.3068 110.75 59.5114 111.5 59.5114C112.053 59.5114 112.549 59.3977 112.989 59.1705C113.436 58.9432 113.803 58.6136 114.091 58.1818C114.386 57.7424 114.58 57.2159 114.67 56.6023H119.239C119.163 57.9356 118.799 59.1098 118.148 60.125C117.504 61.1326 116.614 61.9205 115.477 62.4886C114.341 63.0568 112.996 63.3409 111.443 63.3409ZM131.622 45.5455V49.1818H121.111V45.5455H131.622ZM123.497 41.3636H128.338V57.6364C128.338 58.0833 128.406 58.4318 128.543 58.6818C128.679 58.9242 128.868 59.0947 129.111 59.1932C129.361 59.2917 129.649 59.3409 129.974 59.3409C130.202 59.3409 130.429 59.322 130.656 59.2841C130.884 59.2386 131.058 59.2045 131.179 59.1818L131.94 62.7841C131.698 62.8598 131.357 62.947 130.918 63.0455C130.478 63.1515 129.944 63.2159 129.315 63.2386C128.149 63.2841 127.126 63.1288 126.247 62.7727C125.376 62.4167 124.698 61.8636 124.213 61.1136C123.728 60.3636 123.49 59.4167 123.497 58.2727V41.3636Z" fill="black"/>
</svg>
